<?xml version="1.0" encoding="UTF-8" standalone="no"?>
<!-- Created with Inkscape (http://www.inkscape.org/) -->

<svg
   xmlns:dc="http://purl.org/dc/elements/1.1/"
   xmlns:cc="http://creativecommons.org/ns#"
   xmlns:rdf="http://www.w3.org/1999/02/22-rdf-syntax-ns#"
   xmlns:svg="http://www.w3.org/2000/svg"
   xmlns="http://www.w3.org/2000/svg"
   xmlns:sodipodi="http://sodipodi.sourceforge.net/DTD/sodipodi-0.dtd"
   xmlns:inkscape="http://www.inkscape.org/namespaces/inkscape"
   width="50"
   height="50"
   viewBox="0 0 13.229166 13.229167"
   version="1.1"
   id="svg8"
   inkscape:version="0.92.3 (2405546, 2018-03-11)"
   sodipodi:docname="blenderLogo.svg">
  <defs
     id="defs2" />
  <sodipodi:namedview
     id="base"
     pagecolor="#ffffff"
     bordercolor="#666666"
     borderopacity="1.0"
     inkscape:pageopacity="0.0"
     inkscape:pageshadow="2"
     inkscape:zoom="5.6"
     inkscape:cx="26.880353"
     inkscape:cy="26.662807"
     inkscape:document-units="mm"
     inkscape:current-layer="g21"
     showgrid="false"
     units="px"
     inkscape:window-width="1600"
     inkscape:window-height="837"
     inkscape:window-x="-8"
     inkscape:window-y="-8"
     inkscape:window-maximized="1" />
  <metadata
     id="metadata5">
    <rdf:RDF>
      <cc:Work
         rdf:about="">
        <dc:format>image/svg+xml</dc:format>
        <dc:type
           rdf:resource="http://purl.org/dc/dcmitype/StillImage" />
        <dc:title></dc:title>
      </cc:Work>
    </rdf:RDF>
  </metadata>
  <g
     inkscape:label="Layer 1"
     inkscape:groupmode="layer"
     id="layer1"
     transform="translate(0,-283.77082)">
    <g
       id="g21"
       transform="translate(10.156242,-72.162772)">
      <path
         style="fill:#f7e4d3;stroke-width:0.01968611"
         d="m -4.1694584,368.47984 c -0.634351,-0.0694 -1.2753589,-0.2534 -1.9023515,-0.54616 -0.5714014,-0.2668 -1.1998753,-0.72249 -1.6823589,-1.21983 -0.8026792,-0.82739 -1.3374524,-1.84204 -1.5604022,-2.96063 -0.088679,-0.44491 -0.1106368,-0.67989 -0.1101488,-1.17853 5.356e-4,-0.5516 0.043966,-0.91727 0.1683391,-1.41741 0.3981517,-1.60109 1.4390666,-2.95222 2.9017631,-3.76653 0.5970788,-0.33241 1.3112264,-0.57054 2.0276703,-0.67616 0.3838253,-0.0566 1.160347,-0.061 1.5453594,-0.009 1.3274019,0.17983 2.46190659,0.72472 3.39988328,1.63291 0.95650142,0.92612 1.54944392,2.10062 1.75095352,3.46828 0.044303,0.30068 0.050051,1.17423 0.00978,1.4863 -0.2252863,1.74585 -1.1464151,3.24161 -2.60151156,4.22443 -0.38783045,0.26194 -0.76574479,0.45409 -1.25023184,0.63565 -0.4644866,0.17407 -0.9778543,0.28869 -1.5057349,0.33622 -0.3016223,0.0272 -0.8984319,0.0223 -1.1910106,-0.01 z"
         id="path59"
         inkscape:connector-curvature="0" />
      <path
         style="fill:#f6d1d5;stroke-width:0.01968611"
         d="m -3.8999766,368.4893 c -1.1927641,-0.0781 -2.2807366,-0.49682 -3.2716137,-1.25898 -0.2297974,-0.17676 -0.792727,-0.73771 -0.9678921,-0.96449 -0.8481926,-1.09812 -1.2762927,-2.32962 -1.2762927,-3.67145 0,-1.61335 0.647796,-3.14832 1.7949782,-4.25325 0.5776647,-0.55639 1.2633085,-0.99663 1.9748807,-1.26801 0.8255787,-0.31487 1.5589049,-0.42811 2.4411437,-0.37694 1.4268381,0.0828 2.71441774,0.62747 3.72060907,1.57406 1.00058633,0.94132 1.61444153,2.11526 1.82361123,3.48747 0.036158,0.2372 0.043771,0.37363 0.04504,0.80714 0.00162,0.549 -0.010724,0.69167 -0.1003742,1.16148 -0.1737468,0.91046 -0.5903294,1.80707 -1.1903347,2.56198 -0.20494062,0.25784 -0.63696765,0.69051 -0.8926572,0.89397 -0.98344814,0.78258 -2.1410479,1.22888 -3.3665871,1.29794 -0.4160592,0.0235 -0.4994519,0.0245 -0.7345108,0.009 z m 0.7973434,-4.76805 c 0.4796844,-0.16682 0.793512,-0.6047 0.793512,-1.10719 0,-0.27915 -0.1073905,-0.56984 -0.285018,-0.7715 -0.1786587,-0.20282 -0.5046218,-0.37157 -0.7629597,-0.395 l -0.1135028,-0.0108 v 1.1768 1.17679 l 0.1135028,-0.0108 c 0.062426,-0.005 0.1769359,-0.0324 0.2544657,-0.0593 z"
         id="path57"
         inkscape:connector-curvature="0" />
      <path
         style="fill:#f5dac8;stroke-width:0.01968611"
         d="m -3.8938528,368.47898 c -0.032483,-0.004 -0.156504,-0.0177 -0.2756056,-0.0295 -0.7784812,-0.077 -1.6674086,-0.37533 -2.3524909,-0.78931 -1.4377658,-0.86879 -2.4410861,-2.28486 -2.7656242,-3.90334 -0.1028976,-0.51314 -0.13929,-1.23297 -0.088278,-1.74601 0.1849008,-1.8595 1.2244045,-3.50672 2.8243718,-4.47553 0.7862755,-0.4761 1.7500686,-0.78298 2.5985665,-0.82739 0.119101,-0.006 0.2741298,-0.0147 0.3445074,-0.0188 0.2180356,-0.0128 0.7634617,0.0267 1.0728926,0.0776 1.138015,0.18707 2.21712433,0.71882 3.05134791,1.50363 1.00058639,0.94133 1.61444159,2.11526 1.82361119,3.48748 0.036158,0.23719 0.043771,0.37362 0.04504,0.80713 0.00162,0.54901 -0.010724,0.69167 -0.1003741,1.16148 -0.1737469,0.91046 -0.5903295,1.80708 -1.1903348,2.56198 -0.20494052,0.25785 -0.63696761,0.69052 -0.89265716,0.89399 -0.8642012,0.68768 -1.85219954,1.11186 -2.93349364,1.25945 -0.2217263,0.0303 -1.0244747,0.0559 -1.1614804,0.0372 z m 0.3791153,-5.85394 c 0.00279,-0.64359 -0.00246,-1.17773 -0.011697,-1.18695 -0.022177,-0.0222 -0.2563716,0.0161 -0.3935645,0.0643 -0.4923745,0.17306 -0.8125595,0.65014 -0.7857092,1.17072 0.02478,0.48041 0.334263,0.89393 0.7885296,1.05359 0.118572,0.0417 0.2925206,0.0764 0.357988,0.0715 0.038833,-0.003 0.039443,-0.0188 0.044453,-1.17315 z m 0.4121043,1.09621 c 0.4796844,-0.16682 0.793512,-0.6047 0.793512,-1.10719 0,-0.27915 -0.1073905,-0.56984 -0.285018,-0.7715 -0.1786587,-0.20282 -0.5046218,-0.37157 -0.7629597,-0.395 l -0.1135028,-0.0108 v 1.1768 1.17679 l 0.1135028,-0.0108 c 0.062426,-0.005 0.1769359,-0.0324 0.2544657,-0.0593 z"
         id="path55"
         inkscape:connector-curvature="0" />
      <path
         style="fill:#f2bcc2;stroke-width:0.01968611"
         d="m -3.8938528,368.47769 c -0.032483,-0.004 -0.156504,-0.0164 -0.2756056,-0.0283 -0.7784812,-0.077 -1.6674086,-0.37534 -2.3524909,-0.78931 -1.4377658,-0.86879 -2.4410861,-2.28486 -2.7656242,-3.90334 -0.07472,-0.37261 -0.1084975,-0.73229 -0.1085246,-1.15542 -3.89e-5,-0.55377 0.041715,-0.9231 0.1591705,-1.40798 0.5599495,-2.31167 2.4577733,-4.05976 4.8145943,-4.43473 0.3124681,-0.0497 0.807349,-0.077 1.0443485,-0.0577 0.09523,0.008 0.2927395,0.024 0.4389086,0.0359 2.04365778,0.16724 3.91420778,1.49814 4.7851914,3.40469 0.2250913,0.49271 0.3844645,1.03663 0.4735247,1.61608 0.058722,0.38206 0.064515,1.2148 0.011083,1.59287 -0.097911,0.69277 -0.266408,1.23898 -0.5744039,1.86204 -0.4117819,0.83302 -1.00477532,1.54319 -1.75001339,2.09582 -0.81553796,0.60478 -1.75621091,0.98672 -2.73867581,1.112 -0.3870239,0.0493 -0.9770281,0.0784 -1.1614805,0.0572 z m 0.6868588,-4.69176 c 0.4587883,-0.11734 0.8144605,-0.47749 0.9081365,-0.9196 0.1382926,-0.65267 -0.2793551,-1.2859 -0.9459323,-1.4342 -0.1396445,-0.0311 -0.1635725,-0.0312 -0.3569545,-10e-4 -0.3616916,0.0564 -0.5556875,0.14848 -0.7749008,0.36805 -0.390154,0.39082 -0.4426752,1.0151 -0.1245708,1.48065 0.1944439,0.28458 0.4683275,0.44721 0.865701,0.51406 0.2177654,0.0367 0.2571145,0.0359 0.4285209,-0.008 z"
         id="path53"
         inkscape:connector-curvature="0" />
      <path
         style="fill:#f0caa9;stroke-width:0.01968611"
         d="m -3.8840102,368.45884 c -0.037895,-0.004 -0.1663466,-0.0172 -0.2854482,-0.0291 -0.4192789,-0.0419 -0.9634209,-0.16955 -1.3813059,-0.32403 -0.1064686,-0.0394 -0.3530408,-0.1495 -0.5479327,-0.24475 -1.8073759,-0.88332 -3.0151041,-2.60313 -3.2491466,-4.62678 -0.041369,-0.35768 -0.03057,-1.15409 0.020008,-1.47646 0.1089585,-0.69439 0.2896748,-1.25703 0.5975246,-1.86034 0.431407,-0.84544 1.1152914,-1.62334 1.8933829,-2.15368 0.7321863,-0.49905 1.521864,-0.81739 2.3678543,-0.95457 0.3794509,-0.0616 0.5834503,-0.0763 1.037843,-0.0752 0.5279258,10e-4 0.8962803,0.0491 1.4153417,0.18374 1.70374262,0.44184 3.1286838,1.63875 3.8620026,3.24396 0.2250913,0.49271 0.3844643,1.03663 0.4735247,1.61608 0.058722,0.38206 0.064515,1.2148 0.011083,1.59287 -0.097911,0.69277 -0.2664078,1.23898 -0.5744037,1.86204 -0.86420462,1.74824 -2.53657815,2.94412 -4.4886894,3.20977 -0.2199544,0.03 -0.9874682,0.0542 -1.1516379,0.0364 z m 0.7271921,-4.68475 c 0.4250134,-0.12272 0.7686628,-0.48632 0.8579606,-0.90776 0.1356745,-0.64031 -0.2580201,-1.25685 -0.9099089,-1.42492 -0.4372651,-0.11273 -0.9065383,0.0241 -1.2113542,0.35341 -0.1334633,0.14416 -0.1956185,0.2494 -0.2641938,0.44736 -0.045946,0.13264 -0.053802,0.18698 -0.053802,0.37188 0,0.18514 0.0079,0.23939 0.054257,0.37403 0.2194215,0.63686 0.8749647,0.97428 1.5270413,0.786 z"
         id="path51"
         inkscape:connector-curvature="0" />
      <path
         style="fill:#eec19c;stroke-width:0.01968611"
         d="m -3.8840102,368.45825 c -0.037895,-0.004 -0.1663466,-0.0166 -0.2854482,-0.0285 -0.4192789,-0.0419 -0.9634209,-0.16955 -1.3813059,-0.32404 -0.1064686,-0.0394 -0.3530408,-0.14949 -0.5479327,-0.24475 -1.8073759,-0.88332 -3.0151041,-2.60311 -3.2491466,-4.62676 -0.041369,-0.35768 -0.03057,-1.1541 0.020008,-1.47646 0.1089585,-0.69439 0.2896748,-1.25703 0.5975246,-1.86034 0.431407,-0.84545 1.1152914,-1.62336 1.8933829,-2.15369 0.7312536,-0.4984 1.5133316,-0.81395 2.3693614,-0.95594 0.284103,-0.0472 0.9013316,-0.0923 0.9394407,-0.0687 0.00963,0.006 0.019875,0.25843 0.022751,0.56107 l 0.00525,0.55024 0.1279598,0.004 c 1.7724914,0.0629 3.34240937,1.06762 4.11468908,2.6334 0.2529827,0.51292 0.37205752,0.88901 0.45499282,1.43708 0.049475,0.32694 0.058873,0.92829 0.019389,1.24023 -0.133519,1.05484 -0.58222132,1.99404 -1.31045478,2.74299 -0.90399105,0.9297 -2.04537032,1.42082 -3.39150312,1.45931 -0.018562,5.2e-4 -0.025539,0.13206 -0.029527,0.55682 l -0.00525,0.55614 -0.1476466,0.002 c -0.081205,10e-4 -0.1786507,-0.001 -0.216547,-0.004 z m 0.6501583,-3.51242 c 1.0258388,-0.12745 1.8470767,-0.87851 2.0550638,-1.87945 0.1275906,-0.61403 -0.00519,-1.2774 -0.3627143,-1.81236 -0.1998919,-0.29908 -0.5833989,-0.63456 -0.9152642,-0.80063 -0.25476,-0.12749 -0.728217,-0.24247 -0.9369063,-0.22756 l -0.086772,0.006 -0.00525,0.56993 c -0.00391,0.42586 -0.011373,0.57382 -0.029527,0.58536 -0.013367,0.009 -0.060945,0.0156 -0.1057348,0.0158 -0.2380693,0.001 -0.6028515,0.17969 -0.7991824,0.39175 -0.1334644,0.14416 -0.1956185,0.24941 -0.2641938,0.44737 -0.045946,0.13263 -0.053802,0.18698 -0.053802,0.37188 0,0.18513 0.0079,0.23939 0.054257,0.37404 0.1005169,0.29172 0.2839388,0.5151 0.5537737,0.67437 0.1479822,0.0873 0.3831176,0.1621 0.5114433,0.16258 0.043526,1.5e-4 0.089763,0.008 0.102745,0.0153 0.017266,0.0109 0.02455,0.1602 0.027131,0.55584 0.00196,0.29746 0.00735,0.54747 0.012004,0.55558 0.011205,0.0195 0.044548,0.0186 0.24291,-0.006 z"
         id="path49"
         inkscape:connector-curvature="0" />
      <path
         style="fill:#eea4ac;stroke-width:0.01968611"
         d="m -3.8840102,368.45825 c -0.037895,-0.004 -0.1663466,-0.0166 -0.2854482,-0.0285 -0.4192789,-0.0419 -0.9634209,-0.16955 -1.3813059,-0.32404 -0.1064686,-0.0394 -0.3530408,-0.14949 -0.5479327,-0.24475 -1.8073759,-0.88332 -3.0151041,-2.60311 -3.2491466,-4.62676 -0.041369,-0.35768 -0.03057,-1.1541 0.020008,-1.47646 0.1089585,-0.69439 0.2896748,-1.25703 0.5975246,-1.86034 0.431407,-0.84545 1.1152914,-1.62336 1.8933829,-2.15369 0.7312536,-0.4984 1.5133316,-0.81395 2.3693614,-0.95594 0.2841214,-0.0472 0.9013322,-0.0923 0.9394457,-0.0687 0.00963,0.005 0.019875,0.26286 0.022751,0.5709 l 0.00525,0.56009 0.1181168,0.004 c 0.4438063,0.0174 0.9777386,0.11173 1.3778136,0.2435 0.2924384,0.0963 0.8400794,0.36439 1.10263627,0.53974 1.71333871,1.14431 2.49183293,3.2093 1.95913943,5.19671 -0.24291782,0.90629 -0.78313329,1.75431 -1.50272685,2.35891 -0.79542795,0.66833 -1.78718115,1.06815 -2.74984435,1.10857 -0.1245151,0.005 -0.2461867,0.0135 -0.270383,0.0184 l -0.043995,0.009 -0.00519,0.56567 -0.00525,0.56568 -0.1476464,0.002 c -0.081205,10e-4 -0.1786507,-0.001 -0.2165476,-0.004 z m 0.6397991,-3.49324 c 1.0547601,-0.12569 1.8629822,-0.86807 2.087949,-1.91786 0.046704,-0.21792 0.047889,-0.67074 0.00235,-0.89985 -0.1094832,-0.55088 -0.3967546,-1.04307 -0.8107051,-1.38902 -0.1277806,-0.10681 -0.340776,-0.2481 -0.4823097,-0.31997 -0.2455181,-0.12468 -0.6961884,-0.23539 -0.9594094,-0.23568 l -0.1030632,-1.6e-4 -0.00519,0.59551 -0.00519,0.59551 -0.1279604,0.0132 c -0.2846969,0.0294 -0.5755048,0.17549 -0.772344,0.38811 -0.133464,0.14415 -0.1956181,0.2494 -0.2641934,0.44736 -0.045946,0.13263 -0.053802,0.18698 -0.053802,0.37188 0,0.18514 0.0079,0.23939 0.054268,0.37403 0.1591738,0.462 0.5673606,0.78783 1.0459255,0.83489 l 0.1181168,0.0116 0.00497,0.55121 c 0.00274,0.30316 0.00911,0.56229 0.01415,0.57581 0.011133,0.03 0.031516,0.0302 0.2564677,0.003 z"
         id="path47"
         inkscape:connector-curvature="0" />
      <path
         style="fill:#ebb78c;stroke-width:0.01968611"
         d="m -3.9824399,367.3268 c -0.9395821,-0.10042 -1.8580706,-0.48403 -2.5493522,-1.06476 -1.5675041,-1.31682 -2.1342546,-3.40285 -1.4430552,-5.31146 0.1078428,-0.29778 0.3509242,-0.77488 0.5181239,-1.01692 0.4977109,-0.7205 1.0919914,-1.23842 1.8552688,-1.61685 0.7103938,-0.35223 1.5482255,-0.53091 2.1997552,-0.46913 0.075791,0.008 0.2396785,0.0224 0.3641929,0.0339 0.2984869,0.0275 0.739932,0.11997 1.0333067,0.2166 0.2924385,0.0963 0.8400793,0.36438 1.1026362,0.53974 1.71333818,1.14431 2.4918324,3.2093 1.9591395,5.19671 -0.24291782,0.90629 -0.78313326,1.75429 -1.50272735,2.35891 -0.80730325,0.67831 -1.71479785,1.04093 -2.79905965,1.11849 -0.4390659,0.0314 -0.5601903,0.0339 -0.7382288,0.0148 z m 0.7382288,-2.36179 c 1.0547601,-0.12569 1.8629822,-0.86807 2.087949,-1.91786 0.046704,-0.21792 0.047889,-0.67074 0.00235,-0.89985 -0.1317064,-0.66269 -0.5079477,-1.21857 -1.0666242,-1.57587 -0.1938278,-0.12397 -0.2868044,-0.16851 -0.5118394,-0.24519 -0.2622704,-0.0894 -0.5401216,-0.13093 -0.7677579,-0.11479 -0.7569228,0.0537 -1.2185965,0.24857 -1.6747968,0.70711 -0.4358728,0.4381 -0.6633978,0.94866 -0.6915629,1.5518 -0.032063,0.68661 0.2012557,1.29901 0.6797485,1.78413 0.3906743,0.39608 0.9063994,0.63807 1.4746575,0.69191 0.1145407,0.0108 0.2127793,0.0242 0.2183077,0.0298 0.014261,0.0143 0.049318,0.0127 0.2495651,-0.0111 z"
         id="path45"
         inkscape:connector-curvature="0" />
      <path
         style="fill:#ec9ba4;stroke-width:0.01968611"
         d="m -3.9824399,367.32613 c -0.9291419,-0.0956 -1.8579148,-0.48323 -2.5493522,-1.06409 -1.5675041,-1.31682 -2.1342546,-3.40285 -1.4430552,-5.31146 0.1078428,-0.29778 0.3509242,-0.77488 0.5181239,-1.01692 0.4977109,-0.7205 1.0919914,-1.23842 1.8552688,-1.61685 0.571646,-0.28343 1.1741895,-0.44253 1.8466454,-0.48759 0.168057,-0.0113 0.2029246,-0.009 0.2299053,0.0185 0.020462,0.0205 0.065655,0.0318 0.1267192,0.0319 0.3496018,2.3e-4 0.9796931,0.10886 1.362813,0.23492 0.6862296,0.22578 1.34795435,0.63213 1.84250786,1.13146 0.7348885,0.74199 1.16760162,1.59321 1.34186684,2.63968 0.050899,0.30564 0.051051,1.08505 2.978e-4,1.40686 -0.28960762,1.83543 -1.58957401,3.31 -3.3698103,3.8224 -0.3343543,0.0962 -0.8434276,0.17457 -1.1343415,0.17457 -0.092066,0 -0.1378219,0.009 -0.1550987,0.0295 -0.027818,0.0335 -0.1915661,0.036 -0.4724667,0.008 z m 0.9055613,-2.37007 c 0.2259325,-0.0371 0.3824635,-0.0899 0.6397981,-0.21583 0.5751088,-0.28143 1.0060863,-0.77399 1.2136488,-1.38709 0.1672767,-0.4941 0.1614338,-1.08744 -0.015563,-1.58034 -0.2427887,-0.67611 -0.7981846,-1.22464 -1.4778887,-1.45958 -0.2849204,-0.0985 -0.7181049,-0.159 -0.8081222,-0.11289 -0.018803,0.01 -0.1493473,0.031 -0.2901029,0.0475 -0.5373874,0.063 -0.9651186,0.27398 -1.3598194,0.6707 -0.4358718,0.43811 -0.6633968,0.94866 -0.6915619,1.5518 -0.032063,0.68662 0.2012546,1.29901 0.6797474,1.78414 0.3868101,0.39217 0.9079941,0.63853 1.46085,0.69056 0.1066526,0.01 0.2083095,0.0263 0.2259052,0.0361 0.038471,0.0215 0.1960064,0.0121 0.423108,-0.0251 z"
         id="path43"
         inkscape:connector-curvature="0" />
      <path
         style="fill:#e98b95;stroke-width:0.01968611"
         d="m -3.8741661,367.31608 c -0.6816956,-0.0655 -1.3368944,-0.2587 -1.8684234,-0.55105 -1.093462,-0.60142 -1.8598657,-1.51003 -2.2567427,-2.67548 -0.2657601,-0.78043 -0.3132495,-1.72773 -0.1277557,-2.54839 0.3994437,-1.7672 1.8079699,-3.18097 3.5576165,-3.57088 0.4096152,-0.0912 0.9323645,-0.14747 1.0458991,-0.11242 0.03455,0.0108 0.1971549,0.0287 0.3613492,0.0399 1.302894,0.0897 2.50119824,0.71832 3.32416725,1.74376 0.52574663,0.65511 0.84229255,1.37478 0.98705885,2.24411 0.050899,0.30564 0.051051,1.08505 2.978e-4,1.40685 -0.33891822,2.14796 -2.05978962,3.77429 -4.2064699,3.97539 -0.4050882,0.038 -0.4607446,0.0425 -0.6004265,0.0491 -0.075792,0.003 -0.1732374,0.003 -0.216547,-0.001 z m 0.7972875,-2.36002 c 0.2259325,-0.0371 0.3824635,-0.0899 0.6397981,-0.21583 0.5751088,-0.28143 1.0060863,-0.77399 1.2136488,-1.38709 0.1672767,-0.4941 0.1614338,-1.08744 -0.015563,-1.58034 -0.2962481,-0.82498 -1.0394937,-1.43557 -1.901323,-1.56196 -0.1903601,-0.0279 -0.2553628,-0.0291 -0.4676277,-0.009 -0.3258609,0.0314 -0.4855556,0.0631 -0.6993164,0.13887 -0.2264893,0.0803 -0.3152059,0.12577 -0.5427352,0.27796 -0.3456262,0.23119 -0.6730947,0.62116 -0.8344964,0.99376 -0.5131678,1.18471 -0.028849,2.5413 1.1095378,3.10785 0.2945003,0.14657 0.649545,0.24278 0.9149927,0.24795 0.055423,10e-4 0.1229207,0.009 0.1499892,0.0158 0.061719,0.0174 0.2168906,0.008 0.4330945,-0.0282 z"
         id="path41"
         inkscape:connector-curvature="0" />
      <path
         style="fill:#e7a976;stroke-width:0.01968611"
         d="m -3.9332248,367.28794 c -0.7935677,-0.0795 -1.5047709,-0.32928 -2.1652872,-0.7602 -0.2844492,-0.18558 -0.5190793,-0.38179 -0.7924359,-0.66269 -0.7219594,-0.74189 -1.1671319,-1.66737 -1.2936227,-2.68936 -0.038144,-0.3082 -0.039226,-0.86625 -0.00227,-1.16281 0.1081242,-0.86708 0.4508265,-1.68337 0.9956179,-2.37142 0.168694,-0.21306 0.5844992,-0.62544 0.7775255,-0.77112 0.8490854,-0.64085 1.8329472,-0.99047 2.7954281,-0.9934 1.5230569,-0.004 2.86184643,0.62033 3.7801912,1.76462 0.52574668,0.65511 0.8422925,1.37479 0.9870588,2.24411 0.050899,0.30565 0.051051,1.08505 2.977e-4,1.40686 -0.33828912,2.14397 -2.04791151,3.76355 -4.1966262,3.97561 -0.3102521,0.0306 -0.692801,0.0392 -0.8858748,0.0198 z m 0.8563462,-2.33138 c 0.2268772,-0.038 0.3833176,-0.0908 0.6397981,-0.21633 0.5751088,-0.28143 1.0060863,-0.77399 1.2136488,-1.38709 0.1672767,-0.4941 0.1614338,-1.08744 -0.015563,-1.58034 -0.1536971,-0.42801 -0.4596134,-0.84132 -0.8225835,-1.11135 -0.9569572,-0.71192 -2.2894262,-0.61537 -3.1385261,0.22742 -0.7351654,0.72968 -0.9168945,1.8698 -0.4444345,2.78824 0.4873379,0.94736 1.5089503,1.45642 2.5676601,1.27945 z"
         id="path39"
         inkscape:connector-curvature="0" />
      <path
         style="fill:#e5a26a;stroke-width:0.01968611"
         d="m -3.9332248,367.28702 c -0.932493,-0.0887 -1.8200516,-0.44915 -2.5399961,-1.03156 -0.2458375,-0.19887 -0.6272868,-0.59601 -0.8140023,-0.84749 -0.4909944,-0.66128 -0.7971799,-1.42297 -0.8973474,-2.23228 -0.038144,-0.3082 -0.039226,-0.86625 -0.00227,-1.16281 0.1081242,-0.86708 0.4508265,-1.68337 0.9956179,-2.37142 0.168694,-0.21306 0.5844992,-0.62544 0.7775255,-0.77112 0.7956682,-0.60053 1.6564782,-0.92776 2.6036392,-0.98978 0.1506126,-0.01 0.2646126,-0.009 0.2852979,0.002 0.031236,0.0166 0.034449,0.0592 0.034449,0.45802 v 0.43978 l 0.061519,0.0123 c 0.033834,0.006 0.1113494,0.0123 0.1722538,0.0124 0.3884482,2.9e-4 1.0658264,0.18883 1.4986043,0.41714 1.06517959,0.56195 1.78788334,1.55349 1.99885393,2.7424 0.0439108,0.24746 0.0592465,0.76031 0.0303152,1.01384 -0.21382,1.87384 -1.68790813,3.28513 -3.54992213,3.3987 l -0.2116253,0.0129 v 0.43603 c 0,0.31291 -0.00668,0.44272 -0.023624,0.45966 -0.026411,0.0264 -0.1522945,0.0268 -0.419314,0.002 z m 1.0050987,-2.34809 c 0.9347825,-0.22982 1.642964,-0.98921 1.8101054,-1.94099 0.037767,-0.21506 0.037661,-0.59733 -2.228e-4,-0.81457 -0.1745681,-1.00105 -0.9453848,-1.78595 -1.9381016,-1.97352 -0.4509066,-0.0852 -1.0731637,0.008 -1.5068371,0.22347 -0.7485608,0.3735 -1.2407455,1.08131 -1.33074,1.91374 -0.1173741,1.08568 0.5459448,2.1335 1.5866593,2.50641 0.4284554,0.15352 0.9666566,0.18687 1.3791351,0.0855 z"
         id="path37"
         inkscape:connector-curvature="0" />
      <path
         style="fill:#e67984;stroke-width:0.01968611"
         d="m -3.9332248,367.28743 c -0.9384013,-0.0914 -1.8201706,-0.44966 -2.5399961,-1.03197 -0.2458375,-0.19887 -0.6272868,-0.59601 -0.8140023,-0.84749 -0.4909944,-0.66128 -0.7971799,-1.42297 -0.8973474,-2.23228 -0.038144,-0.3082 -0.039226,-0.86625 -0.00227,-1.16281 0.1081242,-0.86708 0.4508265,-1.68337 0.9956179,-2.37142 0.168694,-0.21306 0.5844992,-0.62544 0.7775255,-0.77112 0.7956228,-0.6005 1.6578936,-0.92828 2.6031633,-0.98959 0.1377034,-0.009 0.2616586,-0.0119 0.2754549,-0.006 0.019266,0.008 0.025081,0.10986 0.025081,0.44191 0,0.24661 0.00834,0.44787 0.019423,0.46857 0.015669,0.0293 0.052748,0.0387 0.1919397,0.0491 0.2761386,0.0206 0.6471403,0.0875 0.8855977,0.1598 1.1685031,0.35396 2.09513852,1.25878 2.47673062,2.4184 0.14586679,0.44327 0.17630192,0.65037 0.1751998,1.19222 -8.3788e-4,0.42444 -0.005302,0.48317 -0.0536476,0.71158 -0.27729826,1.30974 -1.15374892,2.34187 -2.37627052,2.79834 -0.3494594,0.13049 -0.8531739,0.23045 -1.1613268,0.23045 -0.07114,0 -0.1221019,0.01 -0.1318734,0.0246 -0.00875,0.0135 -0.020355,0.22836 -0.025768,0.47738 l -0.00985,0.45279 -0.1181163,0.003 c -0.064964,0.002 -0.1978463,-0.005 -0.2952917,-0.0146 z m 0.762034,-2.29066 c 0.8998837,-0.11979 1.6870489,-0.77248 1.9715945,-1.6348 0.1644445,-0.49835 0.1689211,-1.00969 0.013194,-1.50705 -0.2720161,-0.86875 -1.0678592,-1.5487 -1.9573877,-1.67233 -0.1821767,-0.0253 -0.3038059,-0.0199 -0.6954588,0.031 -0.9317154,0.1211 -1.7389265,0.8297 -1.982656,1.74043 -0.3016797,1.12729 0.231769,2.29465 1.2784114,2.79761 0.253147,0.12165 0.4986913,0.19204 0.7579156,0.21728 0.1136871,0.011 0.2288506,0.0275 0.2559191,0.0363 0.07246,0.0238 0.1252607,0.0226 0.358469,-0.009 z"
         id="path35"
         inkscape:connector-curvature="0" />
      <path
         style="fill:#e49865;stroke-width:0.01968611"
         d="m -3.8840102,367.26769 c -1.4440358,-0.12031 -2.7337824,-0.88305 -3.5384786,-2.0926 -0.4035341,-0.60654 -0.6783191,-1.38148 -0.7541337,-2.12678 -0.033664,-0.33091 -0.014468,-0.91699 0.040233,-1.22902 0.2666756,-1.52094 1.1990248,-2.77246 2.5692163,-3.44876 0.5633462,-0.27806 1.3334916,-0.47054 1.8849455,-0.47114 l 0.1525676,-1.5e-4 v 0.44411 c 0,0.25639 0.00746,0.4395 0.017623,0.4332 0.0097,-0.006 0.022377,0.002 0.028192,0.0167 0.00738,0.0193 0.062942,0.0315 0.1841585,0.0405 0.2772044,0.0207 0.6479117,0.0875 0.8866714,0.15991 1.1685036,0.35395 2.09513853,1.25876 2.47673117,2.41838 0.14586613,0.44327 0.17630127,0.65039 0.17519968,1.19223 -8.3787e-4,0.42445 -0.005302,0.48317 -0.0536476,0.71157 -0.27729879,1.30975 -1.15374891,2.34188 -2.37627055,2.79836 -0.3503085,0.1308 -0.8532013,0.23043 -1.1631226,0.23043 -0.1037049,0 -0.1198658,0.005 -0.1355468,0.0443 -0.012217,0.0304 -0.019562,0.0351 -0.023417,0.0147 -0.00307,-0.0162 -0.010291,0.17422 -0.016015,0.42326 l -0.010399,0.45278 -0.068901,0.003 c -0.037895,0.002 -0.1619187,-0.005 -0.2756063,-0.0146 z m 0.7128194,-2.27092 c 0.8998837,-0.11979 1.6870489,-0.77248 1.9715945,-1.6348 0.1644445,-0.49835 0.1689211,-1.00969 0.013194,-1.50705 -0.3165888,-1.01111 -1.3212959,-1.73857 -2.3235698,-1.68238 -0.5594267,0.0314 -0.9317857,0.14425 -1.3189704,0.39985 -0.6874499,0.45382 -1.0827361,1.19201 -1.0827361,2.02199 0,0.65805 0.241324,1.23871 0.7077772,1.70298 0.4002586,0.39839 0.8904956,0.62769 1.4884441,0.6962 0.3104678,0.0356 0.3015806,0.0355 0.5442676,0.003 z"
         id="path33"
         inkscape:connector-curvature="0" />
      <path
         style="fill:#e39b5e;stroke-width:0.01968611"
         d="m -3.8840102,367.26769 c -1.4440358,-0.12031 -2.7337824,-0.88305 -3.5384786,-2.0926 -0.4035341,-0.60654 -0.6783191,-1.38148 -0.7541337,-2.12678 -0.033664,-0.33091 -0.014468,-0.91699 0.040233,-1.22902 0.2666756,-1.52094 1.1990248,-2.77246 2.5692163,-3.44876 0.5633462,-0.27806 1.3334916,-0.47054 1.8849455,-0.47114 l 0.1525676,-1.5e-4 v 0.25273 c 0,0.51788 0.02659,1.38122 0.042543,1.38122 0.00908,0 0.016517,-0.15991 0.016517,-0.35537 v -0.35538 l 0.1722542,0.0123 c 1.3899268,0.0993 2.54687202,0.86393 3.16353638,2.09068 0.51538364,1.02529 0.51383071,2.30765 -0.004025,3.3417 -0.2957509,0.59053 -0.75274002,1.10447 -1.30407378,1.46658 -0.5503524,0.36148 -1.1605242,0.56379 -1.8225025,0.60429 l -0.2051672,0.0126 v -0.35735 c 0,-0.2251 -0.00728,-0.35734 -0.019685,-0.35734 -0.0122,0 -0.020746,0.12162 -0.022467,0.3199 -0.0015,0.17594 -0.00817,0.5458 -0.014764,0.8219 l -0.011982,0.502 -0.068902,0.003 c -0.037895,0.002 -0.161918,-0.005 -0.2756057,-0.0146 z m 0.8661898,-2.29407 c 0.6127363,-0.12461 1.2111251,-0.53047 1.5446633,-1.04768 0.2787993,-0.43232 0.3934874,-0.8237 0.3930897,-1.34141 -2.234e-4,-0.32633 -0.027796,-0.5061 -0.1183107,-0.77224 -0.2474742,-0.72759 -0.8459473,-1.31212 -1.5832098,-1.5463 -0.2280011,-0.0724 -0.7160682,-0.13871 -0.7397013,-0.10042 -0.00589,0.01 -0.05668,0.0173 -0.112884,0.0174 -0.3642688,3e-4 -0.8402525,0.15545 -1.1947703,0.38949 -0.6874498,0.45381 -1.0827361,1.19201 -1.0827361,2.02198 0,0.65805 0.241324,1.23871 0.7077772,1.70299 0.203077,0.20213 0.4057135,0.34398 0.6753152,0.47276 0.4566223,0.21811 1.0475006,0.2977 1.5107668,0.20349 z"
         id="path31"
         inkscape:connector-curvature="0" />
      <path
         style="fill:#e29656;stroke-width:0.01968611"
         d="m -3.8840102,367.26769 c -1.4440358,-0.12031 -2.7337824,-0.88305 -3.5384786,-2.0926 -0.4035341,-0.60654 -0.6783191,-1.38148 -0.7541337,-2.12678 -0.033664,-0.33091 -0.014468,-0.91699 0.040233,-1.22902 0.2666756,-1.52094 1.1990248,-2.77246 2.5692163,-3.44876 0.5620704,-0.27743 1.3335637,-0.47054 1.8821642,-0.47114 l 0.1497864,-1.5e-4 0.014512,0.81042 c 0.010291,0.57472 0.021204,0.81713 0.037521,0.83344 0.012831,0.0129 0.1143345,0.0284 0.229426,0.0351 0.765886,0.0445 1.5565341,0.45491 2.0694442,1.07423 0.33651068,0.40632 0.55537524,0.87415 0.65988691,1.41053 0.0539604,0.27696 0.048525,0.8201 -0.0110375,1.10242 -0.0888226,0.42104 -0.23519076,0.76947 -0.47588252,1.13289 -0.1567767,0.23671 -0.5525733,0.63411 -0.7861134,0.78931 -0.4473634,0.2973 -0.9650674,0.47655 -1.4971536,0.51838 -0.092691,0.008 -0.1781481,0.0193 -0.1899065,0.0266 -0.014373,0.009 -0.026885,0.28103 -0.038175,0.83028 l -0.016798,0.81697 -0.068901,0.003 c -0.037895,0.002 -0.1619185,-0.005 -0.2756063,-0.0146 z m 0.6791718,-2.25309 c 0.3331696,-0.0305 0.7353867,-0.18038 1.0532067,-0.39247 0.2387233,-0.15931 0.380034,-0.28673 0.5417554,-0.4885 0.804684,-1.00396 0.72088841,-2.41091 -0.1964425,-3.29835 -0.2815123,-0.27233 -0.5765852,-0.4523 -0.9358965,-0.5708 -0.2816961,-0.0929 -0.7454593,-0.15335 -0.777601,-0.10139 -0.00669,0.0108 -0.058152,0.0197 -0.1143569,0.0198 -0.3642688,3e-4 -0.8402525,0.15545 -1.1947703,0.38949 -0.6874498,0.45382 -1.0827361,1.19201 -1.0827361,2.02199 0,0.65805 0.241324,1.23871 0.7077772,1.70298 0.3967353,0.39489 0.9029515,0.63331 1.4675029,0.69117 0.1191205,0.0122 0.2298712,0.0298 0.2461123,0.0388 0.016238,0.009 0.056105,0.0129 0.088588,0.009 0.032483,-0.004 0.121069,-0.0141 0.196861,-0.021 z"
         id="path29"
         inkscape:connector-curvature="0" />
      <path
         style="fill:#e46d79;stroke-width:0.01968611"
         d="m -3.8840102,367.26769 c -1.4440358,-0.12031 -2.7337824,-0.88305 -3.5384786,-2.0926 -0.4035341,-0.60654 -0.6783191,-1.38148 -0.7541337,-2.12678 -0.033664,-0.33091 -0.014468,-0.91699 0.040233,-1.22902 0.2666756,-1.52094 1.1990248,-2.77246 2.5692163,-3.44876 0.5622803,-0.27753 1.3335525,-0.47054 1.88262,-0.47114 l 0.1502406,-1.5e-4 0.013669,0.8908 c 0.00752,0.48994 0.010778,1.00154 0.00725,1.13688 l -0.00643,0.24607 -0.1673319,0.0129 c -0.43021,0.0331 -0.7919916,0.1556 -1.1417958,0.38652 -0.6874488,0.45383 -1.0827361,1.19201 -1.0827361,2.02199 0,0.65806 0.2413251,1.23871 0.7077772,1.70298 0.3980522,0.3962 0.9039267,0.63386 1.4724614,0.69177 l 0.2214682,0.0225 -0.00279,0.63199 c -0.0015,0.3476 -0.00817,0.8579 -0.014763,1.134 l -0.011982,0.50199 -0.068901,0.003 c -0.037895,0.002 -0.1619186,-0.005 -0.2756057,-0.0146 z"
         id="path27"
         inkscape:connector-curvature="0" />
      <path
         style="fill:#e05664;stroke-width:0.01968611"
         d="m -4.0843837,366.32309 c -1.2012004,-0.18127 -2.2307932,-0.92862 -2.7909386,-2.02587 -0.4555694,-0.8924 -0.5335991,-1.93371 -0.2171183,-2.8975 0.2637106,-0.80309 0.7873727,-1.48094 1.5320888,-1.98319 0.3231021,-0.2179 0.8874114,-0.44651 1.3125145,-0.53172 0.2400282,-0.048 0.676933,-0.0901 0.6985836,-0.0672 0.00866,0.009 0.018819,0.31344 0.022584,0.67616 l 0.00685,0.65948 -0.068902,0.005 c -0.6552432,0.0506 -1.157246,0.26571 -1.5900403,0.68122 -0.4700069,0.45122 -0.7196534,1.00233 -0.745742,1.64626 -0.026858,0.66273 0.1960097,1.26669 0.651907,1.76671 0.1590915,0.17449 0.4722631,0.40341 0.7061714,0.51619 0.3031126,0.14616 0.4924901,0.19469 0.9758796,0.25001 l 0.086763,0.01 -0.012892,0.45604 c -0.00709,0.25081 -0.012915,0.55125 -0.012943,0.66766 l -4.58e-5,0.21161 -0.1525672,-0.002 c -0.083912,-10e-4 -0.2648829,-0.0187 -0.4021568,-0.0395 z"
         id="path25"
         inkscape:connector-curvature="0" />
      <path
         style="fill:#de4c5b;stroke-width:0.01968611"
         d="m -3.8840102,365.59585 c -0.4458726,-0.0529 -0.9455674,-0.24492 -1.3484987,-0.51828 -0.2220063,-0.15061 -0.5888169,-0.51537 -0.755034,-0.75082 -0.213094,-0.30185 -0.3948167,-0.71882 -0.4766229,-1.09364 -0.2010729,-0.92129 0.038198,-1.86844 0.6611471,-2.61719 0.3991213,-0.47972 1.047375,-0.86299 1.684244,-0.99578 0.227506,-0.0474 0.5544803,-0.0715 0.5734446,-0.0422 0.00862,0.0133 0.013463,0.14378 0.010756,0.28995 l -0.00491,0.26576 -0.059058,0.005 c -0.6898549,0.0632 -1.2012682,0.28921 -1.6344943,0.72243 -0.9563839,0.95639 -0.9539956,2.51329 0.0053,3.45898 0.2628438,0.25912 0.5694503,0.4535 0.9060465,0.57443 0.1700724,0.0611 0.4980649,0.13065 0.617962,0.13101 0.180065,5.7e-4 0.174082,-0.009 0.174082,0.27604 0,0.13861 -0.00537,0.26602 -0.011949,0.28314 -0.013267,0.0346 -0.1148417,0.0378 -0.3424015,0.0108 z"
         id="path23"
         inkscape:connector-curvature="0" />
    </g>
  </g>
</svg>
